<svg class="w-full h-full" viewBox="0 0 353 718" fill="none" xmlns="http://www.w3.org/2000/svg">
  <path d="M353 52.1C353 23.3 329.7 0 300.9 0H52.1C23.3 0 0 23.3 0 52.1v613.8C0 694.7 23.3 718 52.1 718h248.8c28.8 0 52.1-23.3 52.1-52.1V52.1zm-8 613.3c0 24.6-20 44.6-44.6 44.6H51.6C27 710 7 690 7 665.4V51.6C7 27 27 7 51.6 7h248.8C325 7 345 27 345 51.6v613.8z" fill="url(#paint0_linear)"/>
  <path d="M345 51.6C345 27 325 7 300.4 7H51.6C27 7 7 27 7 51.6v613.8C7 690 27 710 51.6 710h248.8c24.6 0 44.6-20 44.6-44.6V51.6zM219.4 24.1c0 2.4-2 4.4-4.4 4.4-2.4 0-4.4-2-4.4-4.4 0-2.4 2-4.4 4.4-4.4 2.5 0 4.4 1.9 4.4 4.4zM159.9 22h39c1.7 0 3 1 3 2.5s-1.3 2.5-3 2.5h-39c-1.7 0-3-1-3-2.5s1.4-2.5 3-2.5zM334 663.7c0 17.5-12.9 31.3-30.4 31.3h-249C37.2 695 22 681.2 22 663.7V50.4C22 33 37.2 19 54.6 19h28.8c6.1 0 8.3-.2 8.7 7.5.4 8 5.9 12.5 13.3 14.8 2.5.8 5.3.7 8 .7h131.5c2.7 0 5.5.2 8-.6 7.4-2.3 13-7 13.3-15 .4-7.7 2.6-7.4 8.7-7.4h28.5c17.5 0 30.4 14 30.4 31.4v613.3h.2z" fill="url(#paint1_linear)"/>
  <path d="M215.1 28.5a4.4 4.4 0 100-8.8 4.4 4.4 0 000 8.8zM159.9 27h39c1.7 0 3-1 3-2.5s-1.3-2.5-3-2.5h-39c-1.7 0-3 1-3 2.5s1.4 2.5 3 2.5z" fill="#333"/>
  <defs>
    <linearGradient id="paint0_linear" x1="-75.986" y1="106.515" x2="428.986" y2="611.485" gradientUnits="userSpaceOnUse">
      <stop stop-color="#CCC"/>
      <stop offset="1" stop-color="gray"/>
    </linearGradient>
    <linearGradient id="paint1_linear" x1="-71.182" y1="111.318" x2="423.182" y2="605.682" gradientUnits="userSpaceOnUse">
      <stop stop-color="#666"/>
      <stop offset="1"/>
    </linearGradient>
  </defs>
</svg>
