<svg xmlns="http://www.w3.org/2000/svg" viewBox="0 0 225 183">
  <path class="text-indigo-300" d="M79.266 126.793C97.177 98.903 89.67 61.387 62.502 43 51.497 69.243 34.9 126.835 24 153.678c21.865 2.321 43.17-8.043 55.266-26.885z" fill="currentColor"/>

  <path class="text-indigo-500" d="M63.903 40.93l-2.527-1.71-1.457 3.479c-4.217 10.145-8.623 22.806-16.91 48.01l-5.894 17.968c-7.974 24.236-11.525 34.44-15.431 44.06l-1.25 3.077 3.302.35c22.81 2.422 45.03-8.387 57.634-28.02C100.01 99.118 92.2 60.08 63.903 40.93zm-.291 5.942l.523.4c23.542 18.287 29.52 52.49 13.028 78.17l-.35.54c-10.94 16.635-29.423 26.203-48.791 25.48l-.438-.02.68-1.747c3.648-9.468 7.634-21.247 15.735-45.954l4.074-12.422C55.24 69.535 59.456 57.31 63.19 47.928l.422-1.056z" fill="currentColor"/>

  <path class="text-indigo-300" d="M100.403 179c-2.21-10.735-5.65-24.347-9.091-37.634l-.566-2.184-2.239-.036C38.85 138.424 4 81.121 4 50.368 4 24.25 25.146 3 51.135 3c27.544 0 45.638 20.711 61.605 38.983 12.255 14.027 22.843 26.147 35.61 26.147 9.599 0 20.622-2.35 20.622-20.723v-2.706l-2.68-.39c-15.203-1.312-26.856-14.135-26.779-29.47v-.597c-.006-3.15-.012-9.018 1.756-10.806.23-.23.53-.438 1.19-.438 6.734 0 8.702 1.587 10.6 3.114 1.555 1.25 3.482 2.807 7.076 2.807 12.42 0 16.167 3.884 18.046 7.277l2.575 4.636 2.575-4.636c1.88-3.393 5.627-7.277 18.047-7.277 3.594 0 5.526-1.557 7.076-2.807C210.35 4.587 212.319 3 219.054 3c.66 0 .96.207 1.19.438 1.773 1.788 1.761 7.656 1.756 10.806v.598c.08 15.333-11.571 28.157-26.773 29.468l-2.687.243V65.17c0 40.061-22.483 65.74-63.308 72.306l-2.08.338-.36 2.09c-2.833 16.223-12.438 30.452-26.39 39.096z" fill="currentColor"/>

  <path class="text-indigo-500" d="M50.328 5.903c26.337 0 44.053 20.113 59.684 37.864 12.795 14.527 23.844 27.072 38.013 27.072 5.855 0 23.684 0 23.684-23.76v-5.396l-5.394-.484c-13.75-1.176-24.286-12.683-24.211-26.44v-.603c-.006-1.83-.012-6.387.704-8.247 5.146.089 6.52 1.187 8.1 2.45 1.711 1.375 4.31 3.447 8.959 3.447 10.942 0 14.056 3.07 15.548 5.738l5.17 9.25 5.168-9.25c1.504-2.668 4.619-5.738 15.56-5.738 4.648 0 7.248-2.072 8.965-3.447 1.58-1.263 2.954-2.361 8.1-2.45.71 1.86.699 6.417.699 8.247v.602c.077 13.759-10.461 25.268-24.211 26.44l-5.394.632v23.105c0 38.318-21.707 62.888-61.123 69.18l-4.174.667-.722 4.156a54.543 54.543 0 01-21.624 34.617c-2.208-9.983-5.234-21.818-8.26-33.395l-1.137-4.35-4.505-.065C39.736 135.048 5.92 79.818 5.92 50.177c0-24.41 19.918-44.274 44.407-44.274M219.076 0c-13.197 0-11.474 5.903-17.763 5.903-11.042 0-17.419 2.857-20.723 8.767-3.304-5.91-9.68-8.767-20.723-8.767-6.294 0-4.565-5.903-17.763-5.903-6.17 0-5.921 9.445-5.921 14.758-.005 16.787 12.836 30.805 29.605 32.32v.148c0 15.986-8.882 17.71-17.763 17.71C120.889 64.935 100.657 0 50.328 0 22.533 0 0 22.465 0 50.177c0 33.484 37.03 90.733 87.838 91.465 4.133 15.803 7.869 30.632 9.894 41.358 16.676-8.661 28.343-24.585 31.547-43.058 45.822-7.314 66.114-37.427 66.114-75.007V47.078c16.77-1.512 29.612-15.532 29.606-32.32 0-5.313.241-14.758-5.923-14.758z" fill="currentColor"/>

  <path class="text-indigo-500" d="M3.985 43.352c1-.658 2.335-.367 2.982.649a95.778 95.778 0 002.6 3.87c15.865 22.402 39.059 36.748 60.277 36.748 1.19 0 2.156.98 2.156 2.19S71.035 89 69.844 89c-22.739 0-47.16-15.105-63.779-38.571a100.17 100.17 0 01-2.719-4.048 2.211 2.211 0 01.639-3.03z" fill="currentColor"/>

  <circle class="text-indigo-500" fill="currentColor" cx="73.5" cy="55.5" r="8.5"/>
</svg>
