<svg aria-hidden="true" xmlns="http://www.w3.org/2000/svg" viewBox="0 0 168 168">
  <path d="M84 0c46.392 0 84 37.608 84 84s-37.608 84-84 84S0 130.392 0 84 37.608 0 84 0zM62.264 49c0 9.143 5.91 16.92 14.157 19.803V70H64.918c-1.466 0-2.654 1.175-2.654 2.625v8.75c0 1.45 1.188 2.625 2.654 2.625h11.503v41.566c-13.037-1.619-27.39-8.68-31.88-20.566h7.774c2.365 0 3.55-2.828 1.877-4.481L39.365 85.856a2.676 2.676 0 00-3.755 0L20.783 100.52C19.11 102.172 20.295 105 22.66 105h7.166c4.824 22.473 30.213 35 53.674 35 23.5 0 48.856-12.552 53.674-35h7.166c2.365 0 3.55-2.828 1.877-4.481L131.39 85.856a2.676 2.676 0 00-3.754 0l-14.828 14.663c-1.672 1.654-.488 4.481 1.877 4.481h7.775c-4.488 11.882-18.795 18.941-31.88 20.566V84h11.503c1.466 0 2.654-1.175 2.654-2.625v-8.75c0-1.45-1.188-2.625-2.654-2.625H90.579v-1.197c8.247-2.882 14.156-10.658 14.157-19.8.002-11.428-9.378-20.842-20.933-21-11.867-.165-21.54 9.3-21.54 20.997zM83.5 42c3.903 0 7.079 3.14 7.079 7s-3.176 7-7.079 7c-3.903 0-7.079-3.14-7.079-7s3.176-7 7.079-7z" fill="currentColor" fill-rule="evenodd"/>
</svg>
